<?xml version="1.0" standalone="no"?>
<!DOCTYPE svg PUBLIC "-//W3C//DTD SVG 20010904//EN"
 "http://www.w3.org/TR/2001/REC-SVG-20010904/DTD/svg10.dtd">
<svg version="1.0" xmlns="http://www.w3.org/2000/svg"
 width="240.000000pt" height="240.000000pt" viewBox="0 0 240.000000 240.000000"
 preserveAspectRatio="xMidYMid meet">

<g transform="translate(0.000000,240.000000) scale(0.100000,-0.100000)"
fill="#000000" stroke="none">
<path d="M544 2108 c-37 -57 -69 -110 -71 -118 -3 -12 163 -119 611 -394 339
-209 616 -382 616 -385 0 -3 -277 -177 -615 -385 -338 -208 -615 -383 -615
-387 0 -15 151 -219 161 -219 6 0 311 188 680 418 l669 417 -2 158 -3 159
-675 419 c-371 230 -678 419 -682 419 -4 0 -38 -46 -74 -102z"/>
</g>
</svg>
